<svg width="697" height="653" viewBox="0 0 697 653" fill="none" xmlns="http://www.w3.org/2000/svg">
<path d="M230.432 55.1132C280.483 55.1132 321.058 95.6618 321.058 145.679C321.058 195.696 280.483 236.245 230.432 236.245C180.381 236.245 139.806 195.696 139.806 145.679C139.806 95.6618 180.379 55.1132 230.432 55.1132ZM84.4078 394.551C84.4078 387.751 88.7804 383.14 95.8266 383.14C102.873 383.14 107.245 387.509 107.245 394.551V647.55H356.284V394.551C356.284 387.751 360.657 383.14 367.703 383.14C374.507 383.14 379.122 387.509 379.122 394.551V647.55H458.329V371.728C458.329 309.329 407.307 258.583 345.108 258.583H322.27L255.698 362.015L247.68 284.561L258.614 258.338H209.536L220.47 284.561L211.967 362.499L145.393 258.583H118.667C56.2256 258.583 5.44531 309.571 5.44531 371.728V647.553H84.6528V394.553H84.4078V394.551ZM672.85 5.44165H467.943C457.597 5.44165 449.238 13.7946 449.238 24.1338V78.3056L386.154 136.042H449.238V163.604C449.238 173.943 457.597 182.296 467.943 182.296H672.85C683.196 182.296 691.555 173.943 691.555 163.604V24.1338C691.555 13.7946 683.196 5.44165 672.85 5.44165ZM525.473 108.833H498.246V81.625H525.473V108.833ZM585.371 108.833H558.145V81.625H585.371V108.833ZM645.27 108.833H618.043V81.625H645.27V108.833Z" fill="white"/>
</svg>
