<svg width="458" height="458" viewBox="0 0 458 458" fill="none" xmlns="http://www.w3.org/2000/svg">
<path d="M428 41.5339H30C13.431 41.5339 0 54.9649 0 71.5339V323.534C0 340.102 13.432 353.534 30 353.534H162.1L206.042 405.777C211.742 412.554 220.145 416.467 229.001 416.467C237.857 416.467 246.259 412.555 251.96 405.777L295.902 353.534H428C444.568 353.534 458 340.102 458 323.534V71.5339C458 54.9649 444.568 41.5339 428 41.5339ZM323.916 281.534H82.854C74.57 281.534 67.854 274.818 67.854 266.534C67.854 258.25 74.57 251.534 82.854 251.534H323.916C332.2 251.534 338.916 258.25 338.916 266.534C338.916 274.818 332.2 281.534 323.916 281.534ZM67.854 198.755C67.854 190.471 74.57 183.755 82.854 183.755H267.957C276.241 183.755 282.957 190.471 282.957 198.755C282.957 207.039 276.241 213.755 267.957 213.755H82.854C74.57 213.755 67.854 207.039 67.854 198.755ZM375.146 145.974H82.854C74.57 145.974 67.854 139.258 67.854 130.974C67.854 122.69 74.57 115.974 82.854 115.974H375.145C383.429 115.974 390.145 122.69 390.145 130.974C390.146 139.258 383.43 145.974 375.146 145.974Z" fill="white"/>
</svg>
