<svg width="342" height="342" viewBox="0 0 342 342" fill="none" xmlns="http://www.w3.org/2000/svg">
<g clip-path="url(#clip0_104_62)">
<path d="M106.902 0H143.64V15.3632H122.266V30.7266H143.64V46.0899H106.902V0Z" fill="white"/>
<path d="M150.988 0H187.728V13.3594H166.353V16.0312H187.728V46.7578H150.988V32.7305H172.363V30.0587H150.988V0Z" fill="white"/>
<path d="M195.074 0H231.812V13.3594H210.437V16.0312H231.812V46.7578H195.074V32.7305H216.449V30.0587H195.074V0Z" fill="white"/>
<path fill-rule="evenodd" clip-rule="evenodd" d="M170.875 342L71.9253 314.53L42.75 67.2109H299.25L270.096 314.492L170.875 342ZM100.425 179.161L103.143 209.494H208.268L204.747 248.832L170.916 257.964L170.886 257.974L137.104 248.852L134.945 224.66H104.495L108.745 272.288L170.879 289.536L233.1 272.286L240.684 187.306L241.425 179.161L246.901 117.766H94.9629L97.7202 148.099H213.659L210.899 179.161H100.425Z" fill="white"/>
</g>
<defs>
<clipPath id="clip0_104_62">
<rect width="342" height="342" fill="white"/>
</clipPath>
</defs>
</svg>
