<svg width="536" height="536" viewBox="0 0 536 536" fill="none" xmlns="http://www.w3.org/2000/svg">
<g clip-path="url(#clip0_104_71)">
<path d="M118.971 1.06765C125.489 -1.29237 132.785 0.331453 137.687 5.23354L211.964 79.5113C211.539 80.1588 211.152 80.8417 210.806 81.5581L77.7139 356.92L118.971 1.06765Z" fill="white"/>
<path d="M80.8184 426.663L258.804 533.456C263.592 536.329 269.447 536.797 274.632 534.721L453.298 463.254C460.756 460.274 465.308 452.677 464.419 444.694L428.685 123.094C427.949 116.456 423.572 110.783 417.336 108.388C411.101 105.994 404.051 107.276 399.059 111.713L339.919 164.283L80.8184 426.663Z" fill="white"/>
<path d="M319.406 134.215L282.878 79.4227C279.422 74.2385 273.514 71.2294 267.289 71.4813C261.064 71.7333 255.419 75.2101 252.393 80.6566L241.324 100.582L134.628 321.332L319.406 134.215Z" fill="white"/>
</g>
<defs>
<clipPath id="clip0_104_71">
<rect width="536" height="536" fill="white"/>
</clipPath>
</defs>
</svg>
