<svg width="300" height="300" viewBox="0 0 300 300" fill="none" xmlns="http://www.w3.org/2000/svg">
<g clip-path="url(#clip0_104_44)">
<path d="M22.3472 0C19.5972 0 17.5482 2.241 17.7922 4.98L40.9762 265.027C41.2202 267.766 43.5872 270.609 46.2382 271.345L144.619 298.661C147.269 299.397 151.605 299.397 154.256 298.663L252.936 271.302C255.586 270.567 257.956 267.724 258.2 264.986L281.422 4.98C281.668 2.241 279.617 0 276.867 0H22.3472ZM232.049 59.641C231.83 62.084 231.451 66.325 231.207 69.064L230.596 75.887C230.35 78.625 230 82.541 229.815 84.588C229.631 86.636 229.456 88.311 229.424 88.311C229.393 88.311 227.117 88.311 224.367 88.311H154.607C151.857 88.311 149.584 88.311 149.554 88.311C149.524 88.311 147.249 88.311 144.499 88.311H107.759C105.009 88.311 102.96 90.552 103.204 93.291L105.347 117.246C105.591 119.984 108.042 122.226 110.792 122.226H144.5C147.25 122.226 149.525 122.226 149.555 122.226C149.585 122.226 151.858 122.226 154.608 122.226H212.547C215.297 122.226 219.553 122.226 222.004 122.226C224.453 122.226 226.277 124.225 226.055 126.668C225.832 129.111 225.451 133.353 225.207 136.091L218.316 213.319C218.07 216.058 217.759 219.557 217.625 221.095C217.488 222.632 215.209 224.491 212.559 225.226L154.426 241.345C151.776 242.079 149.574 242.687 149.533 242.696C149.492 242.705 147.291 242.11 144.64 241.375L86.4452 225.227C83.7952 224.492 81.4272 221.649 81.1832 218.91L77.4372 176.865C77.1932 174.126 79.2442 171.885 81.9942 171.885H87.3052C90.0552 171.885 94.5552 171.885 97.3052 171.885H105.225C107.975 171.885 110.424 174.126 110.67 176.865L112.139 193.324C112.383 196.063 114.754 198.89 117.41 199.607L144.631 206.958C147.285 207.675 149.467 208.262 149.479 208.262C149.491 208.262 151.672 207.674 154.327 206.957L181.597 199.588C184.251 198.871 186.624 196.043 186.87 193.305L189.827 160.329C190.073 157.59 188.024 155.349 185.274 155.349H154.608C151.858 155.349 149.585 155.349 149.555 155.349C149.525 155.349 147.25 155.349 144.5 155.349H80.5112C77.7612 155.349 75.3122 153.107 75.0682 150.369L67.8122 69.063C67.5682 66.324 67.1892 62.084 66.9702 59.64C66.7532 57.197 68.8242 55.198 71.5742 55.198H144.5C147.25 55.198 149.525 55.198 149.555 55.198C149.585 55.198 151.858 55.198 154.608 55.198H227.446C230.195 55.198 232.267 57.197 232.049 59.641Z" fill="white"/>
</g>
<defs>
<clipPath id="clip0_104_44">
<rect width="299.215" height="299.215" fill="white"/>
</clipPath>
</defs>
</svg>
