<svg width="568" height="568" viewBox="0 0 568 568" fill="none" xmlns="http://www.w3.org/2000/svg">
<path d="M71 147.917C71 105.437 105.437 71 147.917 71H420.083C462.563 71 497 105.437 497 147.917V420.083C497 462.563 462.563 497 420.083 497H147.917C105.437 497 71 462.563 71 420.083V147.917ZM284 224.833C274.197 224.833 266.25 232.78 266.25 242.583V384.583C266.25 387.852 263.602 390.5 260.333 390.5H230.75C220.947 390.5 213 398.447 213 408.25C213 418.053 220.947 426 230.75 426H260.333C283.207 426 301.75 407.457 301.75 384.583V242.583C301.75 232.78 293.803 224.833 284 224.833ZM331.333 266.25V301.75C331.333 324.624 349.876 343.167 372.75 343.167H384.583C387.852 343.167 390.5 345.815 390.5 349.083V384.583C390.5 387.852 387.852 390.5 384.583 390.5H349.083C339.281 390.5 331.333 398.447 331.333 408.25C331.333 418.053 339.281 426 349.083 426H384.583C407.457 426 426 407.457 426 384.583V349.083C426 326.209 407.457 307.667 384.583 307.667H372.75C369.482 307.667 366.833 305.018 366.833 301.75V266.25C366.833 262.982 369.482 260.333 372.75 260.333H408.25C418.053 260.333 426 252.386 426 242.583C426 232.78 418.053 224.833 408.25 224.833H372.75C349.876 224.833 331.333 243.376 331.333 266.25Z" fill="white"/>
</svg>
