<svg width="512" height="512" viewBox="0 0 512 512" fill="none" xmlns="http://www.w3.org/2000/svg">
<g clip-path="url(#clip0_101_2)">
<path d="M490.667 383.998H320C314.347 383.998 308.907 386.238 304.917 390.249L289.834 405.332H222.165L207.082 390.249C203.093 386.238 197.653 383.998 191.999 383.998H21.333C9.557 383.998 0 393.555 0 405.331V469.331C0 492.862 19.136 511.998 42.667 511.998H469.334C492.865 511.998 512.001 492.862 512.001 469.331V405.331C512 393.555 502.464 383.998 490.667 383.998Z" fill="white"/>
<path d="M42.667 341.335H183.168L198.251 356.418C202.24 360.407 207.68 362.669 213.334 362.669H298.667C304.32 362.669 309.76 360.408 313.75 356.418L328.833 341.335H469.334C481.11 341.335 490.667 331.778 490.667 320.002V42.669C490.667 19.138 471.531 0.00195312 448 0.00195312H64C40.469 0.00195312 21.333 19.138 21.333 42.669V320.002C21.333 331.778 30.891 341.335 42.667 341.335ZM349.419 140.503C349.419 136.044 353.046 132.418 357.526 132.418C361.985 132.418 365.611 136.045 365.611 140.503V197.143H389.888C394.368 197.143 397.973 200.77 397.973 205.228C397.973 209.708 394.368 213.335 389.888 213.335H357.525C353.045 213.335 349.418 209.708 349.418 205.228V140.503H349.419ZM268.501 140.503C268.501 137.026 270.741 133.932 274.048 132.823C277.355 131.735 280.981 132.866 283.072 135.639L300.864 159.383L318.677 135.639C320.768 132.866 324.416 131.735 327.701 132.823C331.008 133.932 333.248 137.026 333.248 140.503V205.228C333.248 209.708 329.621 213.335 325.141 213.335C320.682 213.335 317.056 209.708 317.056 205.228V164.78L307.349 177.729C304.298 181.804 297.45 181.804 294.4 177.729L284.693 164.78V205.228C284.693 209.708 281.066 213.335 276.608 213.335C272.128 213.335 268.501 209.708 268.501 205.228V140.503V140.503ZM195.669 132.418H244.224C248.704 132.418 252.331 136.045 252.331 140.503C252.331 144.961 248.704 148.588 244.224 148.588H228.053V205.228C228.053 209.708 224.426 213.335 219.946 213.335C215.487 213.335 211.861 209.708 211.861 205.228V148.588H195.669C191.21 148.588 187.584 144.961 187.584 140.503C187.584 136.045 191.211 132.418 195.669 132.418ZM106.667 140.503C106.667 136.044 110.294 132.418 114.752 132.418C119.232 132.418 122.859 136.045 122.859 140.503V164.78H155.222V140.503C155.222 136.044 158.827 132.418 163.307 132.418C167.787 132.418 171.392 136.045 171.392 140.503V205.228C171.392 209.708 167.787 213.335 163.307 213.335C158.827 213.335 155.222 209.708 155.222 205.228V180.972H122.859V205.228C122.859 209.708 119.232 213.335 114.752 213.335C110.293 213.335 106.667 209.708 106.667 205.228V140.503Z" fill="white"/>
</g>
<defs>
<clipPath id="clip0_101_2">
<rect width="512" height="512" fill="white"/>
</clipPath>
</defs>
</svg>
