<svg width="630" height="630" viewBox="0 0 630 630" fill="none" xmlns="http://www.w3.org/2000/svg">
<path fill-rule="evenodd" clip-rule="evenodd" d="M223.246 77.1389C206.468 72.2715 194.023 73.5769 184.971 78.4804C175.917 83.3843 168.026 93.0947 162.937 109.807C157.812 126.64 156.063 149.113 158.553 176.247C158.957 180.644 159.469 185.136 160.091 189.715C182.065 184.131 205.679 179.721 230.491 176.642C247.692 152.542 265.734 130.809 284.038 111.964C283.121 111.221 282.205 110.487 281.29 109.763C259.923 92.8532 240.145 82.042 223.246 77.1389ZM314.997 83.0576C312.448 80.9202 309.9 78.8433 307.354 76.829C283.332 57.8177 258.73 43.7023 234.948 36.8025C211.045 29.8672 186.507 29.882 164.966 41.5504C143.425 53.2187 130.008 73.763 122.758 97.5736C115.546 121.262 113.929 149.58 116.729 180.086C117.386 187.237 118.29 194.565 119.439 202.05C112.312 204.604 105.438 207.299 98.8382 210.127C70.6801 222.195 46.5515 237.104 29.1573 254.729C11.6739 272.444 0 294.027 0 318.525C0 343.023 11.6739 364.606 29.1573 382.321C46.5515 399.946 70.6801 414.855 98.8382 426.924C105.438 429.751 112.311 432.447 119.439 435.001C118.29 442.485 117.385 449.814 116.728 456.967C113.928 487.471 115.545 515.788 122.758 539.48C130.007 563.29 143.424 583.832 164.965 595.5C186.506 607.171 211.044 607.184 234.948 600.25C258.73 593.349 283.331 579.233 307.353 560.224C309.9 558.208 312.448 556.133 314.997 553.995C317.547 556.133 320.095 558.208 322.641 560.224C346.664 579.233 371.265 593.349 395.047 600.25C418.951 607.184 443.486 607.171 465.028 595.5C486.57 583.832 499.989 563.29 507.238 539.48C514.45 515.788 516.067 487.471 513.265 456.967C512.61 449.814 511.707 442.485 510.556 435.001C517.684 432.447 524.559 429.751 531.161 426.924C559.318 414.855 583.447 399.946 600.844 382.321C618.324 364.606 630 343.023 630 318.525C630 294.027 618.324 272.444 600.844 254.729C583.447 237.104 559.318 222.195 531.161 210.127C524.559 207.299 517.684 204.603 510.556 202.048C511.703 194.564 512.61 187.236 513.265 180.086C516.067 149.58 514.45 121.262 507.238 97.5736C499.989 73.763 486.57 53.2187 465.028 41.5504C443.486 29.882 418.95 29.8672 395.047 36.8025C371.264 43.7023 346.663 57.8177 322.64 76.829C320.095 78.8433 317.547 80.9202 314.997 83.0576ZM314.997 140.373C305.556 150.04 296.107 160.636 286.764 172.082C296.073 171.713 305.492 171.525 315 171.525C324.507 171.525 333.924 171.713 343.231 172.082C333.888 160.636 324.439 150.04 314.997 140.373ZM399.504 176.641C382.303 152.542 364.261 130.809 345.957 111.964C346.874 111.221 347.79 110.487 348.705 109.763C370.072 92.8532 389.85 82.042 406.749 77.1389C423.528 72.2715 435.973 73.5769 445.024 78.4804C454.079 83.3843 461.971 93.0947 467.057 109.807C472.181 126.64 473.932 149.113 471.442 176.247C471.038 180.644 470.526 185.135 469.904 189.714C447.93 184.13 424.318 179.72 399.504 176.641ZM375.873 216.317C356.328 214.494 335.962 213.525 315 213.525C294.036 213.525 273.668 214.494 254.122 216.317C243.209 232.635 232.656 250.082 222.672 268.515C213.579 285.301 205.429 302.034 198.226 318.525C205.429 335.016 213.58 351.75 222.673 368.537C232.657 386.969 243.209 404.416 254.121 420.733C273.668 422.556 294.036 423.526 315 423.526C335.963 423.526 356.328 422.556 375.873 420.733C386.786 404.416 397.338 386.969 407.322 368.537C416.415 351.75 424.565 335.016 431.768 318.525C424.565 302.035 416.415 285.301 407.323 268.515C397.338 250.082 386.786 232.635 375.873 216.317ZM452.458 264.115C449.803 258.912 447.069 253.709 444.255 248.511C439.723 240.151 435.074 231.958 430.315 223.949C441.26 226.033 451.807 228.4 461.908 231.024C459.253 241.771 456.103 252.825 452.458 264.115ZM452.458 372.936C449.803 378.138 447.069 383.342 444.251 388.541C439.723 396.9 435.074 405.092 430.315 413.101C441.26 411.017 451.807 408.65 461.908 406.026C459.253 395.279 456.103 384.225 452.458 372.936ZM502.039 393.383C495.949 369.288 487.679 344.131 477.326 318.525C487.679 292.919 495.949 267.762 502.039 243.667C506.365 245.303 510.556 246.992 514.618 248.732C539.662 259.465 558.587 271.707 570.948 284.231C583.22 296.665 588 308.229 588 318.525C588 328.821 583.22 340.385 570.948 352.819C558.587 365.343 539.662 377.585 514.618 388.318C510.556 390.058 506.365 391.747 502.039 393.383ZM469.904 447.336C447.93 452.918 424.318 457.332 399.504 460.411C382.304 484.51 364.261 506.241 345.957 525.087C346.874 525.83 347.79 526.565 348.705 527.287C370.073 544.197 389.851 555.012 406.75 559.913C423.528 564.781 435.973 563.475 445.024 558.573C454.079 553.668 461.971 543.957 467.057 527.245C472.185 510.412 473.932 487.938 471.442 460.806C471.038 456.408 470.526 451.914 469.904 447.336ZM314.997 496.678C324.439 487.009 333.889 476.413 343.232 464.968C333.924 465.337 324.507 465.526 315 465.526C305.492 465.526 296.073 465.337 286.763 464.968C296.106 476.413 305.555 487.009 314.997 496.678ZM199.679 413.1C194.921 405.091 190.271 396.9 185.742 388.541C182.926 383.342 180.19 378.138 177.536 372.936C173.893 384.225 170.743 395.278 168.087 406.025C178.186 408.649 188.735 411.016 199.679 413.1ZM160.09 447.336C182.064 452.918 205.678 457.328 230.49 460.407C247.691 484.506 265.734 506.241 284.038 525.087C283.121 525.83 282.204 526.565 281.29 527.287C259.922 544.197 240.144 555.012 223.245 559.913C206.467 564.781 194.022 563.475 184.97 558.573C175.917 553.668 168.025 543.957 162.936 527.245C157.811 510.412 156.062 487.938 158.553 460.806C158.957 456.408 159.469 451.914 160.09 447.336ZM127.956 393.381C134.046 369.286 142.314 344.13 152.667 318.525C142.314 292.919 134.046 267.764 127.956 243.669C123.634 245.304 119.441 246.992 115.383 248.732C90.3374 259.465 71.4109 271.707 59.0507 284.231C46.7796 296.665 42 308.229 42 318.525C42 328.821 46.7796 340.385 59.0507 352.819C71.4109 365.343 90.3374 377.585 115.383 388.318C119.441 390.057 123.634 391.746 127.956 393.381ZM168.087 231.025C170.743 241.771 173.893 252.825 177.536 264.114C180.19 258.912 182.926 253.71 185.742 248.511C190.27 240.151 194.921 231.959 199.679 223.95C188.735 226.034 178.187 228.401 168.087 231.025ZM252 318.525C252 283.731 280.206 255.525 315 255.525C349.794 255.525 378 283.731 378 318.525C378 353.319 349.794 381.525 315 381.525C280.206 381.525 252 353.319 252 318.525ZM315 297.525C303.402 297.525 294 306.927 294 318.525C294 330.123 303.402 339.525 315 339.525C326.598 339.525 336 330.123 336 318.525C336 306.927 326.598 297.525 315 297.525Z" fill="white"/>
</svg>
