<svg width="88" height="808" viewBox="0 0 88 808" fill="none" xmlns="http://www.w3.org/2000/svg" preserveAspectRatio="none">
<path d="M61.0001 104L51.0001 0.5L51.0001 0H62.0001C100.96 374.328 90.2438 514.577 62.0001 808H50.5001L65.5001 651C66.3335 644.167 64.1001 622.1 48.5001 588.5C32.9001 554.9 29.3335 536.5 29.5001 531.5C34.7978 284.899 23.8631 160.638 20.5001 129C16.9001 115.8 24.0001 112.167 28.0001 112H43.0001C51.0001 112 58.3335 106.667 61.0001 104Z" fill="url(#paint0_radial_7_55)"/>
<path d="M61.7073 104.707L62.0409 104.373L61.9955 103.904L52.0531 1H61.0988C99.8992 374.186 89.2436 514.471 61.0917 807H51.6002L66.4928 651.121C66.4933 651.117 66.4938 651.112 66.4944 651.108C66.9286 647.521 66.5499 640.172 64.1377 629.566C61.7167 618.921 57.2343 604.937 49.4071 588.079C41.6236 571.314 36.8504 558.359 34.0456 548.988C31.23 539.581 30.422 533.862 30.4996 531.533L30.4999 531.521C35.7983 284.884 24.8626 160.58 21.4945 128.894L21.4861 128.814L21.4649 128.737C19.7125 122.311 20.6223 118.443 22.2165 116.19C23.8192 113.925 26.2623 113.079 28.0217 113H43.0001C47.2152 113 51.211 111.598 54.4659 109.885C57.7216 108.171 60.3029 106.111 61.7073 104.707Z" stroke="black" stroke-opacity="0.25" stroke-width="2"/>
<path d="M25 404C25 246.228 0 0 0 0H51L61 104C56.8333 107 47.5 112.8 43.5 112H27C23.5 112.167 17.3 115.8 20.5 129C21.5 140 23.5 162.8 23.5 166C23.5 170 27.5 232 27.5 234C27.5 235.6 29.1667 293.333 30 322C30.3333 351.833 31 413.2 31 420C31 426.8 30.3333 470.833 30 492L29.5 532C30.3333 539 34.5 558.3 44.5 579.5C47.6667 586.167 54 599.9 54 601.5C57.3333 609.167 64.3 629.4 65.5 649C64.5 662 62.4 688.1 62 688.5C61.6 688.9 57.8333 729 56 749L51 802L50.5 808H0C0 808 25 561.772 25 404Z" fill="url(#paint1_radial_7_55)"/>
<path d="M43.8922 110.039L43.698 110H43.5H27H26.9524L26.9049 110.002C24.5718 110.113 21.5066 111.36 19.5343 114.564C17.5808 117.738 16.894 122.507 18.5214 129.326C19.021 134.826 19.7629 143.188 20.382 150.592C21.0121 158.128 21.5 164.508 21.5 166C21.5 168.082 22.5079 184.689 23.5038 200.873C23.6754 203.662 23.847 206.444 24.0136 209.143C24.3323 214.308 24.6324 219.173 24.8787 223.215C25.0662 226.293 25.2223 228.892 25.3314 230.783C25.3861 231.729 25.4288 232.495 25.4578 233.054C25.4723 233.334 25.4832 233.559 25.4904 233.726C25.4916 233.755 25.4927 233.782 25.4937 233.807C25.4956 233.854 25.4971 233.894 25.4981 233.927C25.4999 233.981 25.5 234.002 25.5 234C25.5 235.638 27.1679 293.404 28.0003 322.04C28.3338 351.891 29 413.216 29 420C29 426.779 28.3338 470.788 28.0002 491.969L28.0002 491.975L27.5002 531.975L27.4985 532.106L27.514 532.236C28.3727 539.45 32.5991 558.958 42.6911 580.353L42.6934 580.358C44.2722 583.682 46.6392 588.765 48.609 593.21C49.5949 595.435 50.4735 597.483 51.1026 599.064C51.4182 599.858 51.6616 600.51 51.8231 600.997C51.9041 601.242 51.9567 601.422 51.9869 601.544C51.9925 601.566 51.9968 601.585 52 601.599V601.916L52.1659 602.297C55.4342 609.815 62.29 629.736 63.4952 648.985C62.9952 655.482 62.2267 665.17 61.5322 673.305C61.1825 677.402 60.8521 681.098 60.5848 683.79C60.4509 685.138 60.3342 686.221 60.2398 686.972C60.1922 687.351 60.1532 687.621 60.1238 687.791C60.1231 687.795 60.1225 687.798 60.1218 687.802C60.0969 687.866 60.0795 687.92 60.0684 687.956C60.0349 688.064 60.0117 688.165 59.9972 688.233C59.9665 688.376 59.9376 688.545 59.9107 688.717C59.8557 689.07 59.7907 689.557 59.7176 690.149C59.5706 691.34 59.382 693.031 59.1627 695.098C58.7237 699.236 58.1574 704.918 57.5469 711.207C56.3257 723.785 54.9255 738.812 54.0087 748.814C54.0086 748.815 54.0085 748.816 54.0084 748.817L49.0088 801.812L49.0078 801.823L49.0069 801.834L48.6597 806H2.21064C2.22958 805.81 2.24969 805.608 2.27095 805.394C2.4542 803.551 2.72291 800.827 3.06486 797.305C3.74876 790.261 4.72566 780.023 5.89789 767.244C8.24232 741.688 11.3682 705.969 14.4941 665.318C20.7448 584.03 27 482.967 27 404C27 325.033 20.7448 223.97 14.4941 142.682C11.3682 102.031 8.24232 66.3121 5.89789 40.7556C4.72566 27.9772 3.74876 17.7391 3.06486 10.695C2.72291 7.17293 2.4542 4.44934 2.27095 2.60593C2.24969 2.39207 2.22958 2.19005 2.21064 2H49.1831L58.898 103.035C56.8751 104.433 54.0575 106.214 51.2728 107.646C49.6486 108.482 48.086 109.172 46.7295 109.604C45.308 110.056 44.3779 110.136 43.8922 110.039Z" stroke="white" stroke-opacity="0.25" stroke-width="4"/>
<defs>
<radialGradient id="paint0_radial_7_55" cx="0" cy="0" r="1" gradientUnits="userSpaceOnUse" gradientTransform="translate(53.4359 404) rotate(90) scale(404 33.9237)">
<stop stop-color="#FFC839"/>
<stop offset="1" stop-color="#FABB1B"/>
</radialGradient>
<radialGradient id="paint1_radial_7_55" cx="0" cy="0" r="1" gradientUnits="userSpaceOnUse" gradientTransform="translate(32.75 404) rotate(90) scale(404 32.75)">
<stop stop-color="#F7F5F7"/>
<stop offset="1" stop-color="#EFEFEF"/>
</radialGradient>
</defs>
</svg>
